<svg id="Layer_1" enable-background="new 0 0 128 128" height="512" viewBox="0 0 128 128" width="512" xmlns="http://www.w3.org/2000/svg"><path d="m100.287 90.423c-.766-.839-1.86-1.248-2.987-1.126-1.129.123-2.102.755-2.667 1.734-.361.625-.776 1.175-1.214 1.67-.374-1.05-1.006-1.995-1.857-2.743.611-1.022.941-2.199.941-3.4 0-2.998-2.006-5.554-4.777-6.356.302-.766.458-1.585.458-2.422 0-1.456-.464-2.837-1.342-3.994-.335-.44-.963-.524-1.401-.191-.03.023-.044.055-.071.08-.565-.523-1.224-.945-1.966-1.203.039-.09.079-.18.116-.272 0-.001 0-.002 0-.003v-.001c.367-.95.554-1.941.554-2.946 0-.552-.447-1-1-1-.024 0-.044.012-.067.014-.094-.69-.293-1.345-.568-1.959.023-.012.049-.013.072-.027.468-.293.609-.91.316-1.378-.451-.719-1.013-1.366-1.659-1.915 1.82-1.548 2.906-3.837 2.906-6.264 0-2.428-1.086-4.717-2.907-6.265 1.821-1.548 2.907-3.837 2.907-6.265s-1.085-4.716-2.905-6.264c2.109-1.787 3.2-4.537 2.834-7.361-.349-2.682-2.066-5.006-4.435-6.217.683-.54 1.291-1.172 1.808-1.919 1.963-2.833 2.293-6.949 1.009-12.586-.493-2.166-2.031-3.818-3.577-3.844-.984-.05-1.777.633-2.056 1.694-1.413 5.372-3.235 9.342-4.935 12.206-2.453-2.038-5.57-3.207-8.877-3.207-3.211 0-6.242 1.103-8.661 3.033-1.669-2.85-3.446-6.771-4.829-12.031-.279-1.062-1.042-1.74-2.055-1.695-1.547.025-3.085 1.678-3.577 3.844-1.284 5.637-.954 9.754 1.009 12.586.485.701 1.054 1.295 1.686 1.813-2.475 1.179-4.277 3.566-4.635 6.323-.367 2.824.724 5.573 2.833 7.361-1.819 1.547-2.904 3.836-2.904 6.264s1.086 4.717 2.906 6.265c-1.821 1.547-2.906 3.837-2.906 6.265 0 2.427 1.086 4.717 2.906 6.265-1.821 1.547-2.906 3.837-2.906 6.265 0 .743.1 1.474.298 2.185-2.755.823-4.708 3.364-4.708 6.344 0 .837.156 1.656.458 2.422-2.771.802-4.777 3.358-4.777 6.356 0 1.201.329 2.377.941 3.4-1.422 1.248-2.246 3.04-2.246 4.966 0 1.859.793 3.622 2.135 4.862-1.342 1.241-2.135 3.004-2.135 4.863 0 1.827.73 3.529 2.058 4.792.152.144.182.394.071.593-.606 1.096-.862 2.318-.792 3.566-2.136 1.152-3.575 3.423-3.473 6.009.067 1.686.412 2.603 1.35 2.485h9.752c.023 1.668.249 2.778.917 3.406.253.238.67.5 1.28.5.068 0 .14-.003.214-.01h12.877c1.613 0 2.999-.977 3.605-2.37 2.358-.06 4.822-.071 7.166-.031.599 1.41 1.997 2.401 3.622 2.401h12.877c.074.007.146.01.214.01.61 0 1.027-.262 1.28-.5.668-.629.894-1.739.917-3.407h10.177c.938.118 1.284-.798 1.35-2.485.121-3.068-1.929-5.693-4.737-6.529-.001-.038.003-.076.001-.115-.029-.738-.196-1.458-.464-2.14.553.12 1.08.187 1.571.187.876 0 1.651-.191 2.323-.573 1.597-.909 2.101-2.615 2.26-3.578 1.131-.489 1.956-1.263 2.459-2.307.901-1.872.454-4.084.162-5.104 2.244-2.999 2.067-6.187-.523-9.026z" fill="#e6e7e8"/><path d="m95.549 87.098c-1.147-1.257-3.199-1.04-4.05.434-.766 1.325-1.731 2.363-2.706 3.172.003.074.014.146.014.221 0 2.079-1.13 3.889-2.807 4.863 1.677.974 2.807 2.784 2.807 4.863 0 1.913-.965 3.589-2.424 4.604 6.775 2.81 6.877-3.114 6.877-3.114 4.547-1.425 2.431-6.89 2.431-6.89 2.855-3.426 1.556-6.293-.142-8.153z" fill="#fa759e"/><path d="m44.818 20.552c.938-.159 1.846-.135 2.699.044.656-1.243 1.51-2.365 2.518-3.327-1.882-2.982-3.966-7.288-5.552-13.319-.507-1.929-3.034-.765-3.691 2.117-1.953 8.573.142 12.476 4.026 14.485z" fill="#fff"/><path d="m44.136 20.692c1.181-.315 2.322-.318 3.381-.096.552-1.048 1.246-2.009 2.053-2.861-1.446-2.749-2.905-6.291-4.087-10.784-.507-1.929-3.034-.765-3.691 2.117-1.371 6.018-.744 9.731 1.092 12.108.4-.196.814-.367 1.252-.484z" fill="#ffd7e5"/><path d="m70.362 20.596c.924-.194 1.913-.202 2.933.004 3.941-1.996 6.082-5.894 4.114-14.533-.657-2.883-3.184-4.046-3.691-2.117-1.62 6.161-3.762 10.531-5.675 13.518.92.918 1.708 1.969 2.319 3.128z" fill="#fff"/><path d="m70.362 20.596c1.059-.222 2.2-.22 3.381.096.521.139 1.009.354 1.477.603 1.91-2.371 2.584-6.106 1.189-12.227-.657-2.883-3.184-4.046-3.691-2.117-1.215 4.62-2.723 8.225-4.209 11.005.721.797 1.347 1.681 1.853 2.64z" fill="#ffd7e5"/><path d="m88.808 100.65c0-2.079-1.131-3.889-2.807-4.863 1.677-.974 2.807-2.784 2.807-4.863 0-2.002-1.049-3.754-2.623-4.751.822-.978 1.319-2.238 1.319-3.616 0-2.997-2.345-5.439-5.3-5.608.618-.903.98-1.994.98-3.17 0-2.812-2.066-5.136-4.762-5.552.414-.909.652-1.914.652-2.978 0-2.683-1.466-5.019-3.638-6.265 2.172-1.245 3.638-3.582 3.638-6.265s-1.466-5.019-3.638-6.265c2.172-1.245 3.638-3.582 3.638-6.265s-1.466-5.019-3.638-6.265c2.429-1.393 3.976-4.15 3.575-7.231-.37-2.85-2.491-5.263-5.268-6.005-1.181-.315-2.322-.318-3.381-.096-2.163-4.102-6.463-6.901-11.423-6.901-4.959 0-9.26 2.799-11.423 6.901-1.059-.222-2.2-.22-3.381.096-2.777.742-4.897 3.155-5.268 6.005-.4 3.081 1.147 5.838 3.575 7.231-2.172 1.245-3.638 3.582-3.638 6.265s1.466 5.019 3.638 6.265c-2.172 1.245-3.638 3.582-3.638 6.265s1.466 5.019 3.638 6.265c-2.172 1.245-3.638 3.582-3.638 6.265 0 1.047.229 2.038.63 2.935-2.832.292-5.04 2.685-5.04 5.594 0 1.176.362 2.268.98 3.17-2.954.169-5.3 2.611-5.3 5.608 0 1.377.497 2.638 1.319 3.616-1.575.997-2.623 2.749-2.623 4.751 0 2.079 1.131 3.889 2.807 4.863-1.677.974-2.807 2.784-2.807 4.863 0 1.602.672 3.044 1.747 4.067.489.465.585 1.211.257 1.802-.577 1.04-.833 2.281-.631 3.595.33 2.148 1.953 3.955 4.048 4.531 1.253.344 2.444.236 3.493-.161 4.811 5.618 12.664 4.063 21.536 4.063 8.52 0 16.1 1.008 20.949-3.962.695.221 1.447.314 2.231.242 2.921-.269 5.213-2.894 5.098-5.824-.054-1.355-.591-2.583-1.438-3.527 1.644-.981 2.748-2.772 2.748-4.825z" fill="#fa759e"/><path d="m58.776 33.098c-5.245 0-9.497 4.252-9.497 9.497s4.252 5.969 9.497 5.969 9.498-.724 9.498-5.969c-.001-5.245-4.253-9.497-9.498-9.497z" fill="#ffd7e5"/><g fill="#3a2c60"><path d="m96.287 86.423c-.767-.839-1.858-1.249-2.987-1.126s-2.102.755-2.667 1.734c-.361.625-.776 1.175-1.214 1.67-.374-1.05-1.006-1.995-1.857-2.743.612-1.023.941-2.199.941-3.4 0-2.998-2.006-5.554-4.777-6.356.302-.766.458-1.585.458-2.422 0-1.456-.464-2.837-1.342-3.994-.336-.439-.962-.525-1.401-.191-.44.334-.526.961-.192 1.401.612.805.936 1.768.936 2.784 0 .935-.278 1.836-.806 2.605-.204.298-.231.682-.072 1.006s.48.537.841.558c2.442.14 4.356 2.164 4.356 4.609 0 1.084-.385 2.14-1.084 2.973-.186.221-.267.511-.223.796s.21.537.453.691c1.352.855 2.158 2.316 2.158 3.906 0 1.639-.885 3.171-2.31 3.998-.309.179-.498.509-.498.866s.189.686.498.865c1.425.827 2.31 2.359 2.31 3.998s-.845 3.122-2.26 3.967c-.257.153-.432.413-.476.708-.045.295.045.596.244.818.665.741 1.06 1.677 1.152 2.654h-5.227c-.22-5.164-.126-11.308 1.572-17.534.146-.533-.169-1.083-.702-1.228-.526-.145-1.082.168-1.228.702-2.112 7.742-1.827 15.537-1.481 21.14h-3.386-11.532v-17.332c0-.552-.447-1-1-1s-1 .448-1 1v23.04c-2.148-.031-4.379-.023-6.526.026v-23.066c0-.552-.447-1-1-1s-1 .448-1 1v17.148h-14.908c.341-5.589.597-13.299-1.492-20.957-.146-.534-.7-.846-1.228-.702-.533.146-.848.695-.702 1.228 1.698 6.226 1.793 12.37 1.572 17.534h-4.921c-.403 0-.795.042-1.179.111.046-.667.221-1.314.548-1.905.555-.999.373-2.237-.441-3.012-.927-.881-1.437-2.068-1.437-3.342 0-1.639.885-3.171 2.31-3.998.309-.179.498-.508.498-.865s-.189-.686-.498-.865c-1.425-.827-2.31-2.359-2.31-3.998 0-1.59.807-3.051 2.158-3.906.243-.154.409-.406.453-.691s-.037-.575-.223-.796c-.699-.833-1.084-1.888-1.084-2.973 0-2.445 1.914-4.47 4.356-4.609.36-.021.682-.234.841-.558s.132-.708-.072-1.006c-.527-.77-.806-1.671-.806-2.605 0-2.378 1.781-4.355 4.143-4.599.319-.033.603-.217.764-.495.16-.278.178-.615.047-.908-.36-.805-.543-1.655-.543-2.527 0-2.22 1.201-4.289 3.135-5.397.312-.178.503-.509.503-.868s-.191-.689-.503-.868c-1.934-1.109-3.135-3.177-3.135-5.397s1.201-4.289 3.135-5.397c.312-.178.503-.509.503-.868s-.191-.689-.503-.868c-1.934-1.109-3.135-3.177-3.135-5.397s1.201-4.289 3.135-5.397c.312-.178.503-.509.503-.868s-.191-.689-.503-.868c-2.199-1.262-3.409-3.709-3.081-6.234.318-2.451 2.141-4.528 4.534-5.167.969-.259 1.948-.286 2.918-.083.441.097.882-.118 1.09-.512 2.071-3.927 6.109-6.367 10.538-6.367s8.467 2.44 10.538 6.367c.208.395.652.609 1.09.512.97-.203 1.95-.175 2.918.083 2.394.64 4.216 2.716 4.534 5.167.327 2.526-.883 4.974-3.082 6.235-.312.178-.503.509-.503.868s.191.689.503.868c1.935 1.109 3.136 3.177 3.136 5.397s-1.202 4.288-3.136 5.397c-.312.179-.503.509-.503.868s.191.689.503.868c1.935 1.109 3.136 3.177 3.136 5.397s-1.202 4.288-3.136 5.397c-.312.179-.503.509-.503.868s.191.689.503.868c.891.51 1.648 1.239 2.193 2.109.293.467.911.609 1.379.316s.609-.91.316-1.378c-.451-.719-1.013-1.366-1.659-1.915 1.82-1.548 2.906-3.837 2.906-6.264 0-2.428-1.086-4.717-2.907-6.265 1.821-1.548 2.907-3.837 2.907-6.265s-1.085-4.716-2.905-6.264c2.109-1.787 3.2-4.537 2.834-7.361-.348-2.686-2.072-5.015-4.448-6.224.686-.539 1.302-1.164 1.821-1.912 1.963-2.833 2.293-6.949 1.009-12.586-.493-2.166-2.031-3.819-3.577-3.844-.013 0-.024 0-.036 0-.972 0-1.743.646-2.019 1.695-1.413 5.373-3.236 9.343-4.936 12.206-2.453-2.038-5.57-3.207-8.877-3.207-3.209 0-6.239 1.102-8.657 3.029-1.671-2.849-3.449-6.761-4.834-12.028-.278-1.062-1.066-1.742-2.055-1.695-1.547.025-3.085 1.678-3.577 3.844-1.284 5.637-.954 9.754 1.009 12.586.486.701 1.058 1.293 1.691 1.81-2.478 1.178-4.283 3.567-4.64 6.326-.367 2.824.724 5.573 2.833 7.361-1.819 1.547-2.904 3.836-2.904 6.264s1.086 4.717 2.906 6.265c-1.821 1.547-2.906 3.837-2.906 6.265 0 2.427 1.086 4.717 2.906 6.265-1.821 1.547-2.906 3.837-2.906 6.265 0 .743.1 1.474.298 2.185-2.755.823-4.708 3.364-4.708 6.344 0 .837.156 1.656.458 2.422-2.771.802-4.777 3.358-4.777 6.356 0 1.201.329 2.377.941 3.4-1.422 1.248-2.246 3.04-2.246 4.966 0 1.859.793 3.622 2.135 4.863-1.342 1.241-2.135 3.003-2.135 4.863 0 1.827.73 3.528 2.058 4.791.152.145.183.393.071.593-.606 1.095-.862 2.318-.792 3.566-2.136 1.152-3.575 3.423-3.473 6.009.067 1.686.412 2.603 1.35 2.485h9.752c.022 1.668.249 2.778.917 3.407.253.238.67.5 1.28.5.068 0 .14-.003.214-.01h12.877c1.613 0 2.999-.977 3.605-2.369 2.359-.06 4.821-.071 7.166-.031.599 1.409 1.997 2.401 3.622 2.401h12.877c.074.007.146.01.214.01.61 0 1.027-.262 1.28-.5.668-.629.894-1.739.917-3.407h10.177c.938.118 1.284-.798 1.35-2.485.121-3.068-1.928-5.692-4.736-6.529-.001-.039.003-.077.001-.116-.029-.738-.197-1.459-.466-2.142.554.121 1.081.19 1.571.19.876 0 1.651-.191 2.323-.573 1.597-.909 2.101-2.614 2.26-3.578 1.131-.489 1.957-1.263 2.46-2.307.901-1.872.453-4.084.161-5.104 2.249-3.002 2.072-6.19-.518-9.029zm-21.601-82.218c.037-.141.08-.197.077-.203.204-.041 1.28.57 1.672 2.289 1.152 5.059.922 8.657-.703 11.002-.66.952-1.551 1.678-2.603 2.252-.743-.117-1.491-.137-2.236-.047-.462-.777-.994-1.498-1.583-2.159 1.85-3.038 3.841-7.298 5.376-13.134zm-32.919 2.085c.384-1.686 1.396-2.301 1.637-2.301.006 0 .012 0 .018.001 0 0 .051.049.095.214 1.5 5.705 3.436 9.901 5.251 12.924-.667.717-1.267 1.507-1.78 2.368-.658-.078-1.316-.066-1.973.016-1.026-.57-1.896-1.286-2.544-2.22-1.626-2.344-1.857-5.943-.704-11.002zm53.156 88.32c-.232.279-.295.663-.164 1.001.009.023.891 2.404.086 4.075-.347.72-.963 1.21-1.884 1.499-.411.129-.693.506-.701.938 0 .019-.065 1.862-1.323 2.578-.641.366-1.537.399-2.639.132.954-1.169 1.51-2.643 1.51-4.183 0-1.859-.793-3.622-2.135-4.863 1.286-1.19 2.06-2.86 2.123-4.633.928-.826 1.832-1.846 2.57-3.123.243-.421.662-.693 1.15-.746.494-.053.963.124 1.295.486 2.043 2.241 2.08 4.478.112 6.839z"/><path d="m78.073 65.251c0 .756-.14 1.503-.418 2.221-.045.116-.094.23-.145.343-.229.502-.007 1.095.496 1.324.135.061.275.09.413.09.381 0 .744-.218.911-.587.066-.145.129-.293.188-.442 0-.001 0-.002 0-.003 0 0 0-.001.001-.001.367-.95.554-1.941.554-2.946 0-.552-.447-1-1-1s-1 .449-1 1.001z"/><path d="m54.807 31.676c0-1.091-.884-1.975-1.975-1.975s-1.975.884-1.975 1.975.884 1.975 1.975 1.975 1.975-.884 1.975-1.975z"/><path d="m67.344 31.676c0-1.091-.884-1.975-1.975-1.975s-1.975.884-1.975 1.975.884 1.975 1.975 1.975 1.975-.884 1.975-1.975z"/><path d="m54.589 44.917c.452.173.936.259 1.448.259.882 0 1.854-.264 2.902-.772 1.048.509 2.021.772 2.902.772.514 0 .997-.086 1.449-.259 1.471-.563 1.994-1.819 2.049-1.96.197-.509-.054-1.073-.559-1.279-.501-.205-1.086.039-1.301.541-.01.024-.262.597-.933.84-.684.25-1.644.081-2.771-.471v-1.077c1.069-.406 1.834-1.433 1.834-2.642 0-.552-.447-1-1-1s-1 .448-1 1c0 .459-.374.833-.834.833-.459 0-.833-.374-.833-.833 0-.552-.447-1-1-1s-1 .448-1 1c0 1.209.765 2.236 1.833 2.642v1.219c-.982.426-1.827.553-2.443.329-.657-.239-.912-.794-.933-.839-.203-.506-.777-.757-1.288-.558-.516.2-.771.779-.571 1.294.055.142.578 1.398 2.049 1.961z"/></g></svg>