<svg id="Layer_1" enable-background="new 0 0 512 512" height="512" viewBox="0 0 512 512" width="512" xmlns="http://www.w3.org/2000/svg"><path d="m326.592 2.021c-44.542 51.141-1.145 81.048-1.145 81.048h11.342v-77.264c-.001-5.384-6.663-7.843-10.197-3.784z" fill="#d8cecc"/><path d="m423.977 2.021c-3.535-4.058-10.197-1.6-10.197 3.785v77.264h11.342c0-.001 43.397-29.909-1.145-81.049z" fill="#d8cecc"/><path d="m426.206 93.571v272.267c0 28.237-14.896 57.7-42.165 61.182v74.678c0 5.687-4.615 10.302-10.302 10.302h-14.392c-5.687 0-10.302-4.615-10.302-10.302v-74.214h-174.738v74.214c0 5.687-4.615 10.302-10.302 10.302h-14.381c-5.687 0-10.302-4.615-10.302-10.302v-191.438h137.076c8.025 0 15.576-1.968 22.221-5.46 15.288-8.015 25.713-24.044 25.713-42.516v-167.868c0-27.939 22.149-51.303 50.077-51.767 28.536-.473 51.797 22.5 51.797 50.922z" fill="#ebe0da"/><path d="m393.385 45.956c-19.357 7.438-32.996 26.537-32.996 48.46v167.868c0 18.471-10.426 34.501-25.713 42.516-6.645 3.492-14.196 5.46-22.221 5.46h-36.056c8.025 0 15.576-1.968 22.221-5.46 15.288-8.015 25.713-24.044 25.713-42.516v-167.868c0-27.939 22.149-51.303 50.077-51.767 6.695-.113 13.093 1.072 18.975 3.307z" fill="#d8cecc"/><path d="m103.503 310.257c-12.555 0-24.181 6.624-30.591 17.43-6.326 10.664-6.558 30.534-1.121 41.444 1.719 3.45 6.544 3.712 8.54.415 4.934-8.153 15.552-21.429 35.101-28.367 7.662-2.719 52.266-3.956 60.395-3.956v-26.966z" fill="#ebe0da"/><g fill="#766d78"><path d="m381.098 134.614 6.508-11.283c2.581-4.475-.648-10.065-5.814-10.065h-13.016c-5.165 0-8.395 5.591-5.814 10.065l6.508 11.283c2.583 4.477 9.045 4.477 11.628 0z"/><path d="m396.859 141.345c-4.268 0-7.726 3.459-7.726 7.726 0 4.784-2.432 9.01-6.123 11.504v-36.567c0-4.267-3.459-7.726-7.726-7.726s-7.726 3.459-7.726 7.726v36.567c-3.691-2.494-6.123-6.72-6.123-11.504 0-4.267-3.459-7.726-7.726-7.726-15.942 0-6.509 37.048 21.575 37.048 28.051 0 37.586-37.048 21.575-37.048z"/><path d="m347.429 104.563h-23.094c-4.268 0-7.726-3.459-7.726-7.726s3.459-7.726 7.726-7.726h23.094c4.268 0 7.726 3.459 7.726 7.726s-3.459 7.726-7.726 7.726z"/><path d="m426.213 104.563h-23.093c-4.268 0-7.726-3.459-7.726-7.726s3.459-7.726 7.726-7.726h23.094c4.268 0 7.726 3.459 7.726 7.726s-3.459 7.726-7.727 7.726z"/></g><path d="m298.619 304.8v50.798c0 19.81-16.061 35.871-35.871 35.871h-52.57c-19.81 0-35.871-16.061-35.871-35.871v-45.338h102.091c8.025 0 15.576-1.968 22.221-5.46z" fill="#24d3b5"/><path d="m384.041 472.338v29.36c0 5.687-4.615 10.302-10.302 10.302h-14.392c-5.687 0-10.302-4.615-10.302-10.302v-29.36z" fill="#a49ca7"/><path d="m246.234 391.469h-36.056c-19.81 0-35.871-16.061-35.871-35.871v-45.338h36.056v45.338c0 19.81 16.061 35.871 35.871 35.871z" fill="#20b7a1"/><path d="m174.317 310.26v117.224h-.01v74.214c0 5.687-4.615 10.302-10.302 10.302h-14.381c-5.687 0-10.302-4.615-10.302-10.302v-191.438z" fill="#d8cecc"/><path d="m139.322 472.338h34.985v29.36c0 5.687-4.615 10.302-10.302 10.302h-14.381c-5.687 0-10.302-4.615-10.302-10.302z" fill="#a49ca7"/></svg>